<?xml version="1.0" encoding="UTF-8"?>
<!DOCTYPE svg PUBLIC "-//W3C//DTD SVG 1.1//EN" "http://www.w3.org/Graphics/SVG/1.1/DTD/svg11.dtd">
<svg version="1.1" xmlns="http://www.w3.org/2000/svg" xmlns:xlink="http://www.w3.org/1999/xlink" width="40" height="40"  xml:space="preserve" id="rainmakerIcon">
    <!-- Generated by PaintCode (www.paintcodeapp.com) -->
    <g id="rainmakerIcon-group000000ff">
        <path id="rainmakerIcon-bezier" stroke="none" fill="rgb(255, 255, 255)" d="M 24.61,3.05 C 26.13,2.19 27.6,1.24 29.03,0.23 30.19,1.36 31.35,2.51 32.49,3.64 30.84,5.49 28.72,7.09 27.73,9.45 27.64,11.45 28.44,13.35 29.11,15.2 30.57,13.92 31.6,12.24 32.71,10.67 34.59,11.48 36.45,12.29 38.32,13.09 37.25,18.55 32.41,22.27 27.89,24.95 25.68,29.81 24.07,35.51 19.41,38.68 15.93,40.64 11.72,39.43 8.2,38.17 8.83,36.21 9.45,34.25 10.08,32.29 10.92,33.29 12.57,35.28 13.41,36.28 13.19,34.24 13.03,32.2 12.67,30.17 10.32,30.72 8.32,29.56 7.2,27.51 4.24,31.21 1.92,26.47 1,23.76 L 1,21.69 C 3.72,17.11 6.59,12.51 10.72,9.03 9.93,10.64 8.39,13.89 7.61,15.51 11.21,14.03 14.79,12.45 18.11,10.4 19.28,12.52 20.47,14.64 21.71,16.72 21.97,14.11 22.21,11.48 22.45,8.85 20.19,8.79 17.93,8.73 15.68,8.64 17.48,5.08 20.41,2.47 24.61,3.05 Z M 24.61,3.05" />
    </g>
</svg>
