<?xml version="1.0" encoding="UTF-8"?>
<!DOCTYPE svg PUBLIC "-//W3C//DTD SVG 1.1//EN" "http://www.w3.org/Graphics/SVG/1.1/DTD/svg11.dtd">
<svg version="1.1" xmlns="http://www.w3.org/2000/svg" xmlns:xlink="http://www.w3.org/1999/xlink" width="40" height="40"  xml:space="preserve" id="squidIcon">
    <!-- Generated by PaintCode (www.paintcodeapp.com) -->
    <g id="squidIcon-ffffffff">
        <path id="squidIcon-bezier" stroke="none" fill="rgb(255, 255, 255)" d="M 15.18,4.68 C 16.85,3.28 18.52,1.73 20.63,1 23.56,2.01 25.54,4.59 27.69,6.66 30.23,9.38 32.6,12.26 34.67,15.34 35.86,17.27 37.14,19.25 37.59,21.5 37.82,22.35 37.41,23.34 36.56,23.68 34.65,24.63 32.46,24.68 30.39,25.02 29.78,26.62 29.07,28.2 28.82,29.89 28.44,31.76 30.1,33.41 29.67,35.28 29.39,36.65 28.14,37.46 27.15,38.33 25.96,37.22 25.04,35.85 24.76,34.24 24.56,36.18 23.74,38.06 22,39.12 20.13,37.85 19.7,35.58 19.8,33.48 19.74,35.55 19.14,37.76 17.23,38.91 15.54,37.77 14.73,35.86 14.84,33.87 14.22,35.35 13.32,36.72 12.03,37.71 11.01,36.79 9.82,35.81 9.67,34.35 9.57,32.73 10.81,31.42 10.98,29.85 11.03,27.87 10.32,25.99 9.68,24.14 7.45,23.72 4.89,23.65 3.1,22.1 2.14,20.8 3.14,19.15 3.74,17.89 6.7,12.85 10.88,8.64 15.18,4.68 Z M 10.37,17.91 C 8.85,20.96 9.72,25.32 12.94,26.95 14.78,27.99 17.04,27.64 18.86,26.76 20.08,26.06 21.3,26.98 22.35,27.54 24.46,28.21 26.98,27.92 28.53,26.26 30.28,24.63 30.65,22.13 30.42,19.87 29.94,17.34 27.9,15.01 25.16,14.88 23.38,14.49 21.79,15.49 20.12,15.8 18.57,15.38 17.11,14.46 15.45,14.62 13.3,14.66 11.24,15.98 10.37,17.91 Z M 10.37,17.91" />
        <path id="squidIcon-bezier2" stroke="none" fill="rgb(255, 255, 255)" d="M 11.35,23.03 C 9.61,20.15 11.46,15.82 14.93,15.36 17.16,14.91 19.14,16.44 20.18,18.23 21.21,16.82 22.72,15.49 24.63,15.65 27.24,15.52 29.18,17.86 29.52,20.22 29.67,23.3 27.12,26.23 23.85,25.93 22.19,25.54 20.9,24.39 20.04,22.97 19.16,23.91 18.32,25.06 16.98,25.39 14.84,26.05 12.33,25.01 11.35,23.03 Z M 13.78,17.19 C 12.97,18.08 13.32,19.29 13.58,20.32 L 13.97,19.97 13.58,20.33 C 14.84,21.69 17.32,22.06 18.49,20.4 19.64,19.09 18.83,17.31 17.6,16.38 16.31,16.02 14.63,15.97 13.78,17.19 Z M 23.18,16.58 C 21.25,17.18 20.75,19.92 22.36,21.13 23.94,22.62 26.85,21.48 27.13,19.4 27.36,17.4 25.04,15.81 23.18,16.58 Z M 23.18,16.58" />
    </g>
</svg>
