<?xml version="1.0" encoding="UTF-8"?>
<!DOCTYPE svg PUBLIC "-//W3C//DTD SVG 1.1//EN" "http://www.w3.org/Graphics/SVG/1.1/DTD/svg11.dtd">
<svg version="1.1" xmlns="http://www.w3.org/2000/svg" xmlns:xlink="http://www.w3.org/1999/xlink" width="40" height="40"  xml:space="preserve" id="zonesIcon">
    <!-- Generated by PaintCode (www.paintcodeapp.com) -->
    <g id="zonesIcon-ffffffff">
    </g>
    <g id="zonesIcon-fd5900ff">
        <path id="zonesIcon-bezier" stroke="none" fill="rgb(255, 255, 255)" d="M 12.54,0.65 C 13.42,0.64 14.09,1.52 14.1,2.38 14.23,5 14.07,7.73 14.95,10.24 15.18,10.94 15.92,11.95 16.7,11.33 17.31,9.32 16.78,7.21 16.8,5.15 17.31,5.1 18.29,4.85 18.3,5.66 18.36,7.58 17.85,9.53 18.29,11.44 18.39,11.93 18.86,12.2 19.31,12.26 20.44,12.51 21.35,11.55 22.1,10.84 23.69,8.8 24.39,6.23 25.5,3.93 25.8,3.22 26.73,2.78 27.37,3.3 27.78,4.02 27.4,4.86 27,5.47 25.91,7.05 24.64,8.48 23.62,10.09 23.34,10.51 23.38,11.03 23.4,11.51 23.45,12.47 23.33,13.43 23.34,14.4 23.77,14.41 24.3,14.54 24.61,14.13 25.97,12.71 27.05,11.05 28.18,9.44 28.44,8.95 29.06,8.91 29.48,9.21 29.78,9.68 29.39,10.24 29.09,10.61 27.74,12.08 26.07,13.23 24.89,14.86 24.43,15.46 25.02,16.54 25.75,16.44 26.51,16.1 27.11,15.43 27.97,15.31 27.97,15.66 27.98,16.01 27.94,16.36 27.39,16.86 26.65,17.04 26.05,17.45 25.42,17.87 25.9,19.22 26.66,18.96 27.5,18.77 28.27,18.26 29.14,18.25 29.54,18.31 29.83,18.62 30.17,18.81 29.33,20.18 27.52,18.94 26.54,20.02 26.16,20.4 26.25,20.99 26.18,21.48 29.36,22.11 32.65,22.55 35.88,21.97 37.04,21.83 38.4,21.56 39.42,22.32 40,22.72 39.97,23.86 39.2,24.01 38.16,24.17 37.15,23.68 36.12,23.6 35.71,23.58 35.14,23.5 34.9,23.95 34.93,24.56 35.13,25.14 35.23,25.74 34.47,25.71 33.68,25.63 33.03,25.19 31.21,24.05 29.25,23.01 27.11,22.76 26.57,22.68 25.72,22.89 25.79,23.61 25.72,24.03 26.14,24.19 26.44,24.34 27.51,24.78 28.69,24.85 29.78,25.26 29.17,25.74 28.41,25.82 27.68,25.89 27.66,26.11 27.63,26.34 27.61,26.56 28.46,26.99 29.44,27.23 30.16,27.9 30.6,28.31 30.47,29.02 29.98,29.31 28.66,29.39 27.67,28.27 26.9,27.31 26.48,26.7 25.88,26.26 25.22,25.96 25.06,27.14 24.47,28.38 24.91,29.56 25.53,30.26 26.68,30.4 27.06,31.31 27.36,32.35 25.92,32.99 25.28,32.23 24.4,31.15 24.08,29.68 23.09,28.69 22.58,28.17 21.57,28.16 21.17,28.82 20.97,29.61 21.26,30.43 21.6,31.13 22.36,32.74 23.67,33.98 24.47,35.55 24.88,36.42 25.25,37.53 24.69,38.42 24.41,38.86 23.79,38.79 23.42,38.52 22.62,37.95 22.28,36.96 21.97,36.06 21.36,34.11 20.89,32.12 20.27,30.17 20.1,29.69 19.94,29.16 19.56,28.79 19.24,28.5 18.8,28.73 18.42,28.74 18.46,29.42 18.56,30.11 18.69,30.78 18.56,30.86 18.44,30.95 18.31,31.04 18.16,30.36 18.16,29.61 17.79,29 17.55,28.62 16.83,28.58 16.73,29.09 16.55,30.08 16.99,31.09 16.71,32.07 16.4,32.36 15.96,32.25 15.58,32.27 15.85,31.15 16.07,30.02 16.06,28.86 14.87,29.07 13.66,29.27 12.5,29.64 11.96,29.78 11.67,30.32 11.39,30.77 10.44,32.44 9.55,34.14 8.65,35.83 8.29,36.45 7.95,37.11 7.37,37.54 6.97,37.83 6.45,37.63 6,37.64 5.84,36.11 6.77,34.8 7.78,33.78 9.08,32.48 10.23,31.04 11.35,29.58 11.85,28.88 12.4,28.16 12.58,27.29 12.72,26.63 12.3,25.83 11.58,25.86 9.69,25.92 8.96,28.53 6.99,28.3 7.11,27.85 7,27.25 7.42,26.95 8.36,26.27 9.6,26.23 10.5,25.48 11.09,25 10.89,23.9 10.17,23.68 9.56,23.61 8.95,23.82 8.35,23.97 6.59,24.47 4.82,24.92 3.09,25.55 2.65,25.69 2.2,25.88 1.73,25.89 1.33,25.75 1.17,25.28 0.91,24.98 2.12,24.27 3.56,24.46 4.86,24.11 6.32,23.74 7.81,23.52 9.25,23.07 9.86,22.93 9.97,22.14 9.73,21.64 9.44,20.95 8.69,20.65 8,20.64 5.87,20.59 3.8,21.19 1.69,21.31 1.15,21.36 0.67,21.07 0.2,20.85 0.45,20.25 0.75,19.51 1.49,19.43 2.74,19.29 3.84,20.1 5.07,20.19 5.75,20.23 6.68,20.37 7.09,19.65 6.95,18.92 6.03,18.82 5.51,18.46 5.54,18.32 5.59,18.02 5.61,17.87 6.89,18.16 7.94,19.38 9.32,19.07 9.29,18.52 9.19,17.98 9.25,17.43 9.45,16.94 9.86,16.55 9.98,16.02 9.51,15.11 8.49,14.7 7.62,14.3 6.19,13.66 4.52,13.87 3.13,13.13 2.66,12.93 2.67,12.38 2.73,11.95 3.54,12.23 4.34,12.6 5.21,12.64 5.03,12.16 4.93,11.6 4.51,11.26 3.54,10.42 2.2,10.18 1.29,9.25 0.83,8.78 0.7,8.11 0.51,7.49 0.95,7.4 1.4,7.18 1.86,7.27 2.48,7.51 2.9,8.07 3.33,8.55 4.77,10.31 6.39,11.89 8.11,13.34 8.88,13.98 9.59,14.74 10.52,15.1 11.23,15.38 12.34,14.88 12.2,13.99 11.94,12.8 10.7,12.13 10.49,10.92 10.41,10.14 11.39,9.92 11.97,10.02 12.47,10.28 12.7,10.86 13.02,11.3 13.19,11.32 13.52,11.36 13.69,11.38 13.87,10.3 13.34,9.32 12.98,8.35 12.45,6.95 11.71,5.64 11.1,4.27 10.8,3.58 10.51,2.77 10.79,2.02 11.08,1.3 11.77,0.72 12.54,0.65 Z M 12.54,0.65" />
        <path id="zonesIcon-bezier2" stroke="none" fill="rgb(255, 255, 255)" d="M 8.36,8.15 C 8.68,8.1 9,8.05 9.31,8.01 9.33,8.53 9.34,9.04 9.34,9.56 8.67,9.38 8.4,8.82 8.36,8.15 Z M 8.36,8.15" />
        <path id="zonesIcon-bezier3" stroke="none" fill="rgb(255, 255, 255)" d="M 31.5,16.19 C 32.03,16.11 32.86,15.87 32.97,16.65 32.88,17.43 32.01,17.17 31.47,17.25 31.48,16.89 31.49,16.54 31.5,16.19 Z M 31.5,16.19" />
        <path id="zonesIcon-bezier4" stroke="none" fill="rgb(255, 255, 255)" d="M 2.03,16.76 C 2.62,16.67 3.31,16.41 3.82,16.86 4.01,17.12 4.18,17.46 3.91,17.73 3.44,18.31 2.65,18.06 2.02,18 2.02,17.58 2.02,17.17 2.03,16.76 Z M 2.03,16.76" />
        <path id="zonesIcon-bezier5" stroke="none" fill="rgb(255, 255, 255)" d="M 5.84,29.44 C 6.36,29.45 7.11,29.21 7.39,29.83 7.75,30.5 7.08,31.44 6.34,31.14 5.63,30.91 5.86,30.01 5.84,29.44 Z M 5.84,29.44" />
        <path id="zonesIcon-bezier6" stroke="none" fill="rgb(255, 255, 255)" d="M 30.81,30.33 C 31.25,30.35 31.78,30.17 32.14,30.52 32.45,30.84 32.62,31.26 32.82,31.65 32.51,31.91 32.2,32.17 31.88,32.43 31.59,32.18 31.28,31.94 31.03,31.64 30.83,31.24 30.87,30.77 30.81,30.33 Z M 30.81,30.33" />
        <path id="zonesIcon-bezier7" stroke="none" fill="rgb(255, 255, 255)" d="M 18.85,32.33 C 19.7,32.29 19.49,33.4 19.54,33.97 19.23,33.99 18.92,34 18.61,34.02 18.64,33.45 18.62,32.86 18.85,32.33 Z M 18.85,32.33" />
        <path id="zonesIcon-bezier8" stroke="none" fill="rgb(255, 255, 255)" d="M 26.74,39.51 C 26.75,38.9 26.69,38.04 27.44,37.87 28.18,37.65 28.7,38.67 28.25,39.24 27.92,39.78 27.24,39.51 26.74,39.51 Z M 26.74,39.51" />
    </g>
</svg>
